<?xml version="1.0" encoding="UTF-8" standalone="no"?>
<!-- Created with Inkscape (http://www.inkscape.org/) -->

<svg
   version="1.1"
   id="svg521"
   width="312"
   height="194.66667"
   viewBox="0 0 312 194.66667"
   sodipodi:docname="laca-logo-large1.png.svg"
   inkscape:version="1.1.1 (c3084ef, 2021-09-22)"
   xmlns:inkscape="http://www.inkscape.org/namespaces/inkscape"
   xmlns:sodipodi="http://sodipodi.sourceforge.net/DTD/sodipodi-0.dtd"
   xmlns="http://www.w3.org/2000/svg"
   xmlns:svg="http://www.w3.org/2000/svg">
  <defs
     id="defs525" />
  <sodipodi:namedview
     id="namedview523"
     pagecolor="#ffffff"
     bordercolor="#666666"
     borderopacity="1.0"
     inkscape:pageshadow="2"
     inkscape:pageopacity="0.0"
     inkscape:pagecheckerboard="0"
     showgrid="false"
     inkscape:zoom="3.5032051"
     inkscape:cx="156"
     inkscape:cy="100.62214"
     inkscape:window-width="1306"
     inkscape:window-height="1081"
     inkscape:window-x="2859"
     inkscape:window-y="135"
     inkscape:window-maximized="0"
     inkscape:current-layer="g527" />
  <g
     inkscape:groupmode="layer"
     inkscape:label="Image"
     id="g527">
    <path
       style="fill:#000000;stroke-width:1.33555"
       d="M 72.666667,192.0208 3.3333333,191.32881 v -16.72228 -16.72229 l 7.9707717,-0.66887 7.970772,-0.6689 15.026283,-32.10677 15.026283,-32.106787 0.0029,-37.792351 c 0.0023,-29.274163 0.378603,-37.820314 1.669612,-37.916414 0.916667,-0.06824 4.084668,-0.03092 7.040003,0.08295 C 65.853716,17.008112 80.863384,13.25732 97.112832,6.9431095 111.10509,1.506002 111.60084,1.4180816 128,1.4653882 c 11.98097,0.034562 18.19961,0.6472248 22.11927,2.1791988 5.11892,2.0007034 5.93486,1.9676959 13.33333,-0.5393706 6.59993,-2.23647327 10.37276,-2.57652524 23.21407,-2.0923245 13.82102,0.5211425 16.55346,1.0651021 27.70426,5.5152222 15.59604,6.2241549 34.1286,10.7059319 40.18942,9.7191149 8.16034,-1.328661 8.09966,-1.624144 8.17232,39.79492 l 0.066,37.628547 14.96344,32.106774 14.96345,32.10677 7.67655,0.40239 7.67654,0.40239 -0.37266,16.98878 -0.37266,16.9888 -82.66666,0.0232 C 179.2,192.70178 110.8,192.40143 72.666667,192.02085 Z M 301.33333,176.13233 V 165.61809 L 156.53619,164.62454 C 65.337404,163.99877 11.269533,164.10207 10.470676,164.90358 9.7730815,165.60351 9.3818,170.33051 9.6011613,175.40803 L 10,184.6399 l 102,0.68144 c 56.1,0.37478 121.65,0.82628 145.66667,1.00333 l 43.66666,0.32191 z M 284,156.65679 c 0,-1.03797 -18.89177,-41.573 -19.84468,-42.57962 -0.51963,-0.54892 -0.69643,4.69916 -0.39289,11.66243 l 0.55189,12.66048 -3.58604,1.63936 c -6.64939,3.03977 -24.37779,-0.75824 -53.39495,-11.43898 -12.55053,-4.61964 -31.2896,-4.89229 -43.55426,-0.63367 -8.16975,2.83673 -8.28244,2.83925 -15.00532,0.33444 -5.12358,-1.90894 -10.34674,-2.52327 -21.44042,-2.52181 -14.1032,0.002 -15.37198,0.25004 -33.025751,6.45958 -18.500712,6.50746 -33.55158,9.07291 -41.494234,7.07278 -3.466056,-0.87284 -3.480012,-0.93096 -3.480012,-14.49623 0,-7.95636 -0.490193,-13.09143 -1.178833,-12.34901 C 46.680609,114.05553 28,154.44674 28,156.04459 c 0,0.66105 55.728469,1.17078 128,1.17078 70.4,0 128,-0.25137 128,-0.55858 z M 254.66667,79.14854 V 23.824022 L 246.14927,23.026 c -4.68458,-0.438912 -15.63458,-3.290938 -24.33334,-6.337836 -23.22124,-8.1336577 -28.0696,-9.3044308 -38.53117,-9.3044308 -10.325,0 -23.21335,3.1593128 -23.40559,5.7374018 -0.51193,6.865044 -0.39878,107.969965 0.1208,107.970815 0.36667,6e-4 5.16667,-0.95279 10.66667,-2.11865 14.27184,-3.02528 24.9076,-1.70375 46.66667,5.79847 15.42354,5.31781 29.44956,9.08134 35.66666,9.57022 1.30858,0.10288 1.66667,-11.7558 1.66667,-55.19345 z m -159.504631,45.79189 20.012341,-6.79335 14.74615,0.69423 c 8.11038,0.38183 16.39614,1.11534 18.4128,1.63003 L 152,121.40715 V 66.626567 11.84599 l -5,-1.629331 C 144.25,9.3205281 137.5,8.2549192 132,7.8486397 120.38425,6.9905962 113.28489,8.5121238 90.758899,16.687392 81.641616,19.99629 71.73064,22.597924 66.092232,23.162399 l -9.425565,0.943613 -0.348452,54.708147 -0.348452,54.708151 9.589965,-0.89428 c 6.041516,-0.56337 16.994869,-3.40791 29.602311,-7.6876 z"
       id="path621" />
  </g>
</svg>
